<?xml version="1.0" encoding="iso-8859-1"?>
<!-- Generator: Adobe Illustrator 19.0.0, SVG Export Plug-In . SVG Version: 6.00 Build 0)  -->
<svg xmlns="http://www.w3.org/2000/svg" xmlns:xlink="http://www.w3.org/1999/xlink" version="1.1" id="Layer_1" x="0px" y="0px" viewBox="0 0 512.001 512.001" style="enable-background:new 0 0 512.001 512.001;" xml:space="preserve" width="512px" height="512px">
<g>
<circle cx="119.646" cy="117.515" r="40.848" fill="#F58900"/>
</g>
<g>
<path d="M214.324,264.816l-68.217-3.305l-34.558-69.43l9.199,11.48c4.197-14.65-4.277-29.929-18.927-34.126    c-19.032-5.453-39.476-2.711-56.399,7.563s-28.789,27.147-32.733,46.547L0.978,281.149c-2.917,14.352,0.765,29.254,10.032,40.595    c8.859,10.841,21.927,17.314,35.855,17.864c3.907,0.873,3.54,0.554,45.145,0.431l-66.147,56.156    c-9.35,7.937-10.495,21.952-2.557,31.303c7.943,9.355,21.959,10.491,31.303,2.557l112.46-95.472    c4.641-3.941,7.338-9.502,7.762-15.322c-10.992-0.532-38.487-1.865-49.453-2.396c-12.363-0.599-22.383-9.447-25.022-20.945    c-4.599-20.044-18.375-80.18-18.375-80.18l35.827,71.977c2.985,5.998,8.98,9.915,15.672,10.239    c0.707,0.034,79.257,3.853,79.965,3.853c9.808,0,17.989-7.708,18.469-17.612C232.409,273.988,224.533,265.31,214.324,264.816z" fill="#F58900"/>
</g>
<g>
<path d="M334.219,219.22c-8.638-3.051-17.38-0.604-18.948,3.838c-1.567,4.441-4.241,34.307,4.397,37.358    c8.64,3.051,25.317-21.867,26.885-26.308C348.122,229.667,342.858,222.271,334.219,219.22z" fill="#F58900"/>
</g>
<g>
<path d="M509.081,337.92c-2.306-0.842-4.856,0.344-5.698,2.65l-0.094,0.255c-3.975,10.88-10.475,21.113-17.705,28.975    c-4.875,5.075-10.783,10.123-17.762,13.407c-1.016-11.826-5.256-30.095-40.272-57.105c-58.323-38.589-72.356-57.539-72.356-57.539    s-3.35-5.865-7.546-13.097c-8.252,10.441-19.65,21.273-32.181,16.846c-13.799-4.874-14.279-23.583-14.436-29.731    c-0.128-5.018,0.165-11.338,0.844-16.519l-0.307,0.072c-11.516,2.736-20.547,11.662-23.418,23.145l-13.025,7.974    c-2.37,1.45-4.001,3.853-4.474,6.59c-0.473,2.739,0.255,5.548,2,7.711l7.762,9.621c6.333,7.85,17.063,10.624,26.407,6.827    c4.023-1.635,8.55-1.52,12.494,0.297c3.944,1.817,6.962,5.183,8.338,9.301c2.182,6.538,4.917,14.476,7.921,22.62l-20.949-4.871    c-2.572-0.598-5.266-0.402-7.723,0.564l-25.434,9.988c-6.708,2.634-10.011,10.208-7.377,16.917    c2.633,6.707,10.209,10.01,16.914,7.377l21.659-8.505l35.107,8.162c0.534,1.112,1.065,2.191,1.593,3.226l-14.432,66.433    c-1.53,7.043,2.939,13.992,9.981,15.522c7.052,1.531,13.994-2.947,15.522-9.982l10.75-49.486    c6.326,2.152,14.553,3.852,23.479,5.531c2.451-7.212,6.533-13.825,12.076-19.368c2.57-2.57,6.733-2.57,9.304,0    c2.646,2.648,2.435,6.868,0,9.303c-10.265,10.264-13.205,24.861-9.164,37.618c-17.557,0-10.912,0-15.157,0    c-7.207,0-13.048,5.842-13.048,13.049c0,7.206,5.842,13.049,13.048,13.049c55.567,0,53.55,0.129,57.35-0.6    c14.416-2.766,23.672-13.41,27.438-26.799c13.19-6.227,23.363-16.085,31.328-28.168c6.702-10.581,11.871-23.185,14.099-36.347    C512.29,340.761,511.127,338.667,509.081,337.92z" fill="#F58900"/>
</g>
</svg>
